Coordinates
version=1
nRows=21
nColumns=22
inDegrees=yes

Units are S.I. units (second, meters, Newtons, ...)
If the header above contains a line with 'inDegrees', this indicates whether rotational values are in degrees (yes) or radians (no).

endheader
time	pelvis_tilt	pelvis_list	pelvis_rotation	pelvis_tx	pelvis_ty	pelvis_tz	hip_flexion_r	hip_adduction_r	hip_rotation_r	knee_angle_r	ankle_angle_r	subtalar_angle_r	hip_flexion_l	hip_adduction_l	hip_rotation_l	knee_angle_l	ankle_angle_l	subtalar_angle_l	lumbar_extension	lumbar_bending	lumbar_rotation
      1.30000000	     -0.01664415	     -5.97818356	     17.50555607	     -0.88678479	      1.00175696	      0.53254160	     18.85553037	      7.06961766	     -0.02733256	    -26.00630145	      8.31148548	      0.68460691	     -5.05469590	     -3.13698079	     11.24494248	    -32.36755095	      9.66151695	      2.57363847	    -11.16606266	      6.16331898	     -3.03286783
      1.31000000	      0.03373593	     -6.17203406	     17.89894712	     -0.88000257	      1.00270919	      0.53137789	     18.11972288	      7.26160073	     -0.31721222	    -25.42113990	      8.56702857	      0.67554507	     -3.86404667	     -3.51794963	     10.48506023	    -34.70744643	      8.99007075	      3.19648107	    -11.09372795	      6.40099714	     -2.84873241
      1.32000000	      0.15316733	     -6.41975613	     18.33129863	     -0.87329010	      1.00361741	      0.53026955	     17.31349197	      7.54281668	     -0.61253357	    -24.77343048	      8.74103297	      0.66546716	     -2.62610779	     -4.08514568	      9.52736866	    -37.08881211	      8.54145822	      3.30364614	    -11.08990707	      6.70647692	     -2.66776850
      1.33000000	      0.26737783	     -6.69634076	     18.76891835	     -0.86668344	      1.00436774	      0.52927805	     16.54837856	      7.86985017	     -0.90272266	    -24.14289599	      8.90731234	      0.63685568	     -1.29223342	     -4.78825382	      8.41399190	    -39.46587538	      8.29373273	      3.15287468	    -11.08727238	      7.01939840	     -2.43561346
      1.34000000	      0.35928479	     -6.99912805	     19.19217869	     -0.86018499	      1.00493688	      0.52841353	     15.85226352	      8.23504423	     -1.18417014	    -23.54959496	      9.05489834	      0.56805721	      0.12666646	     -5.61173695	      7.18797493	    -41.78718180	      8.23946985	      2.42846119	    -11.06768492	      7.33123873	     -2.13896945
      1.35000000	      0.53116227	     -7.29995887	     19.61093074	     -0.85370563	      1.00553893	      0.52762187	     15.07417615	      8.64932656	     -1.42249352	    -22.93495898	      9.17319992	      0.49842388	      1.46308547	     -6.55797771	      5.88681074	    -43.95655821	      8.39098688	      1.25136110	    -11.14646347	      7.65210000	     -1.80546350
      1.36000000	      0.73917055	     -7.58403376	     20.00423786	     -0.84727515	      1.00613000	      0.52690608	     14.27795308	      9.07975252	     -1.62799843	    -22.34520948	      9.26274791	      0.42248357	      2.73843608	     -7.56779257	      4.56310544	    -45.94647334	      8.72853933	     -0.24494057	    -11.28416915	      7.94942736	     -1.40532268
      1.37000000	      0.96942349	     -7.83419487	     20.36626418	     -0.84087367	      1.00672572	      0.52619350	     13.45960870	      9.49883955	     -1.79704854	    -21.76679931	      9.34911588	      0.34395212	      3.93397920	     -8.58480349	      3.26202040	    -47.71829876	      9.22295441	     -1.93576433	    -11.46475651	      8.21079410	     -0.95800004
      1.38000000	      1.21107363	     -8.03922480	     20.70633996	     -0.83456006	      1.00732195	      0.52542861	     12.63039351	      9.88809501	     -1.90622277	    -21.21051449	      9.46605040	      0.26557867	      5.05564452	     -9.54857695	      2.05406820	    -49.26728684	      9.84426457	     -3.66920794	    -11.68267785	      8.42882164	     -0.48671847
      1.39000000	      1.45374534	     -8.19749630	     21.00831233	     -0.82836391	      1.00791245	      0.52457006	     11.81765102	     10.22948132	     -2.00955998	    -20.70935718	      9.55813198	      0.19492665	      6.11058906	    -10.41760025	      0.95718733	    -50.59946121	     10.51181927	     -5.30560716	    -11.93340508	      8.60486889	      0.03955525
      1.40000000	      1.68061757	     -8.30473961	     21.29077991	     -0.82230188	      1.00848812	      0.52356591	     11.02346347	     10.50976343	     -2.08853367	    -20.24176994	      9.65703716	      0.13330832	      7.11999191	    -11.14968452	      0.01452663	    -51.71407488	     11.17939209	     -6.71666456	    -12.19580564	      8.73523694	      0.57210136
      1.41000000	      1.88424308	     -8.35947858	     21.55547164	     -0.81636928	      1.00903691	      0.52238908	     10.25514598	     10.72036885	     -2.15848233	    -19.81343341	      9.77365758	      0.07984509	      8.09428401	    -11.71945552	     -0.76621547	    -52.61924313	     11.79420932	     -7.84092850	    -12.45826055	      8.81876421	      1.08543475
      1.42000000	      2.06014859	     -8.37123058	     21.80665280	     -0.81055524	      1.00955260	      0.52102087	      9.51410421	     10.86489912	     -2.24234948	    -19.41264292	      9.89143987	      0.03652402	      9.04623498	    -12.11793165	     -1.36908894	    -53.32387292	     12.31539848	     -8.61205288	    -12.71127121	      8.86390464	      1.60976619
      1.43000000	      2.19669813	     -8.35262228	     22.05361976	     -0.80483331	      1.01001378	      0.51946408	      8.80528705	     10.95423090	     -2.32295073	    -19.02128816	     10.01618924	      0.01344955	      9.99993023	    -12.35757154	     -1.80746437	    -53.84106805	     12.75365563	     -8.90906145	    -12.93116983	      8.87965862	      2.10269442
      1.44000000	      2.30464194	     -8.27294303	     22.29627559	     -0.79923204	      1.01044411	      0.51770365	      8.12520723	     10.95669471	     -2.43175302	    -18.68069386	     10.21472390	     -0.00957046	     10.93168825	    -12.40805735	     -2.09443616	    -54.17731917	     13.06663677	     -9.01357012	    -13.14644778	      8.83823791	      2.59432219
      1.45000000	      2.39895989	     -8.18293571	     22.53704282	     -0.79366948	      1.01085878	      0.51580785	      7.43899345	     10.94095159	     -2.52884221	    -18.31172617	     10.35588400	     -0.03293234	     11.84484104	    -12.37035408	     -2.29850605	    -54.33942515	     13.30517605	     -8.98191588	    -13.34829140	      8.78816064	      3.06105045
      1.46000000	      2.52292090	     -8.06117215	     22.79750238	     -0.78815531	      1.01132839	      0.51375263	      6.70015763	     10.89821841	     -2.66802277	    -17.92198666	     10.45541402	     -0.08366866	     12.69462030	    -12.25722060	     -2.44007416	    -54.34301269	     13.47079766	     -8.52565851	    -13.59017635	      8.72785187	      3.50428082
      1.47000000	      2.59566900	     -7.92380529	     23.08666946	     -0.78274326	      1.01169458	      0.51154388	      6.01473712	     10.81141217	     -2.84447560	    -17.54588495	     10.63094610	     -0.10843627	     13.58570565	    -12.06139209	     -2.52780124	    -54.21861635	     13.58913316	     -7.98064978	    -13.77571270	      8.64497748	      3.88093688
      1.48000000	      2.67104123	     -7.78032029	     23.40646141	     -0.77744103	      1.01204295	      0.50922052	      5.33006508	     10.71933257	     -3.02723987	    -17.17042649	     10.75323439	     -0.12850754	     14.46829383	    -11.83242287	     -2.58276555	    -53.97756947	     13.66014155	     -7.33795961	    -13.96676314	      8.56482141	      4.25566558
      1.49000000	      2.73807328	     -7.64158774	     23.75188990	     -0.77217854	      1.01234759	      0.50681190	      4.64482795	     10.63307927	     -3.21547732	    -16.77009080	     10.88054874	     -0.14899028	     15.34503365	    -11.60904901	     -2.66589394	    -53.61442094	     13.72254826	     -6.71337588	    -14.13994116	      8.49002444	      4.58728119
      1.50000000	      2.81815027	     -7.49517048	     24.15046063	     -0.76699916	      1.01263180	      0.50427642	      3.94496052	     10.54496847	     -3.45976728	    -16.36176163	     11.01114894	     -0.17396029	     16.19955909	    -11.38188620	     -2.75557259	    -53.14332709	     13.77713379	     -6.19752564	    -14.32548342	      8.42366205	      4.86935612
